<mxfile host="Electron" agent="Mozilla/5.0 (Windows NT 10.0; Win64; x64) AppleWebKit/537.36 (KHTML, like Gecko) draw.io/28.0.4 Chrome/138.0.7204.97 Electron/37.2.1 Safari/537.36" version="28.0.4">
  <diagram name="Page-1" id="c_ZkIr_zOMjIXWDe5sSD">
    <mxGraphModel dx="1783" dy="1111" grid="1" gridSize="10" guides="1" tooltips="1" connect="1" arrows="1" fold="1" page="1" pageScale="1" pageWidth="850" pageHeight="1100" math="0" shadow="0">
      <root>
        <mxCell id="0" />
        <mxCell id="1" parent="0" />
        <mxCell id="_BnmR6yMb-w9I0ZpGsDe-52" value="" style="group" parent="1" vertex="1" connectable="0">
          <mxGeometry x="39.5" y="60" width="761" height="570" as="geometry" />
        </mxCell>
        <mxCell id="_BnmR6yMb-w9I0ZpGsDe-13" value="" style="rounded=1;whiteSpace=wrap;html=1;" parent="_BnmR6yMb-w9I0ZpGsDe-52" vertex="1">
          <mxGeometry x="239" y="250" width="120" height="186" as="geometry" />
        </mxCell>
        <mxCell id="_BnmR6yMb-w9I0ZpGsDe-10" value="" style="rounded=1;whiteSpace=wrap;html=1;dashed=1;dashPattern=8 8;fillStyle=auto;strokeColor=#FF0000;arcSize=10;" parent="_BnmR6yMb-w9I0ZpGsDe-52" vertex="1">
          <mxGeometry x="30.5" y="30" width="700" height="170" as="geometry" />
        </mxCell>
        <mxCell id="_BnmR6yMb-w9I0ZpGsDe-47" style="edgeStyle=orthogonalEdgeStyle;rounded=0;orthogonalLoop=1;jettySize=auto;html=1;exitX=0.5;exitY=1;exitDx=0;exitDy=0;entryX=0.5;entryY=0;entryDx=0;entryDy=0;" parent="_BnmR6yMb-w9I0ZpGsDe-52" target="_BnmR6yMb-w9I0ZpGsDe-22" edge="1">
          <mxGeometry relative="1" as="geometry">
            <mxPoint x="459.5" y="180" as="sourcePoint" />
          </mxGeometry>
        </mxCell>
        <mxCell id="_BnmR6yMb-w9I0ZpGsDe-8" value="" style="rounded=1;whiteSpace=wrap;html=1;" parent="_BnmR6yMb-w9I0ZpGsDe-52" vertex="1">
          <mxGeometry x="80.5" y="140" width="600" height="40" as="geometry" />
        </mxCell>
        <mxCell id="_BnmR6yMb-w9I0ZpGsDe-6" value="" style="group" parent="_BnmR6yMb-w9I0ZpGsDe-52" vertex="1" connectable="0">
          <mxGeometry x="349.5" y="47.5" width="121" height="40" as="geometry" />
        </mxCell>
        <mxCell id="_BnmR6yMb-w9I0ZpGsDe-4" value="" style="rounded=1;whiteSpace=wrap;html=1;" parent="_BnmR6yMb-w9I0ZpGsDe-6" vertex="1">
          <mxGeometry x="-55.42" width="171" height="40" as="geometry" />
        </mxCell>
        <mxCell id="_BnmR6yMb-w9I0ZpGsDe-5" value="&lt;font face=&quot;Fira Code&quot;&gt;Client : &lt;font style=&quot;color: rgb(255, 0, 0);&quot;&gt;Next.JS UI&lt;/font&gt;&lt;/font&gt;" style="text;strokeColor=none;align=center;fillColor=none;html=1;verticalAlign=middle;whiteSpace=wrap;rounded=0;" parent="_BnmR6yMb-w9I0ZpGsDe-6" vertex="1">
          <mxGeometry x="-50" y="7.5" width="160.16" height="25" as="geometry" />
        </mxCell>
        <mxCell id="_BnmR6yMb-w9I0ZpGsDe-7" value="" style="group" parent="_BnmR6yMb-w9I0ZpGsDe-52" vertex="1" connectable="0">
          <mxGeometry x="414.21" y="140" width="121" height="40" as="geometry" />
        </mxCell>
        <mxCell id="_BnmR6yMb-w9I0ZpGsDe-9" value="&lt;font face=&quot;Fira Code&quot;&gt;API Gateway : &lt;font style=&quot;color: rgb(255, 0, 0);&quot;&gt;Next.JS api folder&lt;/font&gt;&lt;/font&gt;" style="text;strokeColor=none;align=center;fillColor=none;html=1;verticalAlign=middle;whiteSpace=wrap;rounded=0;" parent="_BnmR6yMb-w9I0ZpGsDe-7" vertex="1">
          <mxGeometry x="-170" y="7.5" width="280.16" height="25" as="geometry" />
        </mxCell>
        <mxCell id="_BnmR6yMb-w9I0ZpGsDe-11" value="&lt;font style=&quot;color: rgb(0, 0, 0);&quot; face=&quot;Fira Code&quot;&gt;Code&lt;/font&gt;&lt;div&gt;&lt;font style=&quot;color: rgb(255, 0, 0);&quot; face=&quot;Fira Code&quot;&gt;Nest.JS app&lt;/font&gt;&lt;/div&gt;" style="rounded=1;whiteSpace=wrap;html=1;" parent="_BnmR6yMb-w9I0ZpGsDe-52" vertex="1">
          <mxGeometry x="251" y="290" width="100" height="40" as="geometry" />
        </mxCell>
        <mxCell id="_BnmR6yMb-w9I0ZpGsDe-12" value="&lt;font face=&quot;Fira Code&quot;&gt;DB&lt;/font&gt;&lt;div&gt;&lt;font style=&quot;color: rgb(255, 0, 0);&quot; face=&quot;Fira Code&quot;&gt;MongoDB&lt;/font&gt;&lt;/div&gt;" style="shape=datastore;whiteSpace=wrap;html=1;" parent="_BnmR6yMb-w9I0ZpGsDe-52" vertex="1">
          <mxGeometry x="263.5" y="356" width="71" height="60" as="geometry" />
        </mxCell>
        <mxCell id="_BnmR6yMb-w9I0ZpGsDe-14" value="&lt;font face=&quot;Fira Code&quot;&gt;Users&lt;/font&gt;" style="text;html=1;align=center;verticalAlign=middle;whiteSpace=wrap;rounded=0;" parent="_BnmR6yMb-w9I0ZpGsDe-52" vertex="1">
          <mxGeometry x="241" y="250" width="120" height="30" as="geometry" />
        </mxCell>
        <mxCell id="_BnmR6yMb-w9I0ZpGsDe-19" value="" style="rounded=1;whiteSpace=wrap;html=1;" parent="_BnmR6yMb-w9I0ZpGsDe-52" vertex="1">
          <mxGeometry x="400" y="250" width="120" height="186" as="geometry" />
        </mxCell>
        <mxCell id="_BnmR6yMb-w9I0ZpGsDe-20" value="&lt;font style=&quot;color: rgb(0, 0, 0);&quot; face=&quot;Fira Code&quot;&gt;Code&lt;/font&gt;&lt;div&gt;&lt;font style=&quot;color: rgb(255, 0, 0);&quot; face=&quot;Fira Code&quot;&gt;Nest.JS app&lt;/font&gt;&lt;/div&gt;" style="rounded=1;whiteSpace=wrap;html=1;" parent="_BnmR6yMb-w9I0ZpGsDe-52" vertex="1">
          <mxGeometry x="410" y="290" width="100" height="40" as="geometry" />
        </mxCell>
        <mxCell id="_BnmR6yMb-w9I0ZpGsDe-21" value="&lt;font face=&quot;Fira Code&quot;&gt;DB&lt;/font&gt;&lt;div&gt;&lt;font style=&quot;color: rgb(255, 0, 0);&quot; face=&quot;Fira Code&quot;&gt;Postgres&lt;/font&gt;&lt;/div&gt;" style="shape=datastore;whiteSpace=wrap;html=1;" parent="_BnmR6yMb-w9I0ZpGsDe-52" vertex="1">
          <mxGeometry x="424.5" y="356" width="71" height="60" as="geometry" />
        </mxCell>
        <mxCell id="_BnmR6yMb-w9I0ZpGsDe-22" value="&lt;font face=&quot;Fira Code&quot;&gt;Appointments&amp;nbsp;&lt;/font&gt;" style="text;html=1;align=center;verticalAlign=middle;whiteSpace=wrap;rounded=0;" parent="_BnmR6yMb-w9I0ZpGsDe-52" vertex="1">
          <mxGeometry x="400" y="250" width="120" height="30" as="geometry" />
        </mxCell>
        <mxCell id="_BnmR6yMb-w9I0ZpGsDe-23" value="" style="rounded=1;whiteSpace=wrap;html=1;" parent="_BnmR6yMb-w9I0ZpGsDe-52" vertex="1">
          <mxGeometry x="560" y="250" width="120" height="186" as="geometry" />
        </mxCell>
        <mxCell id="_BnmR6yMb-w9I0ZpGsDe-24" value="&lt;font style=&quot;color: rgb(0, 0, 0);&quot; face=&quot;Fira Code&quot;&gt;Code&lt;/font&gt;&lt;div&gt;&lt;font style=&quot;color: rgb(255, 0, 0);&quot; face=&quot;Fira Code&quot;&gt;Nest.JS app&lt;/font&gt;&lt;/div&gt;" style="rounded=1;whiteSpace=wrap;html=1;" parent="_BnmR6yMb-w9I0ZpGsDe-52" vertex="1">
          <mxGeometry x="570" y="290" width="100" height="40" as="geometry" />
        </mxCell>
        <mxCell id="_BnmR6yMb-w9I0ZpGsDe-25" value="&lt;font face=&quot;Fira Code&quot;&gt;DB&lt;/font&gt;&lt;div&gt;&lt;font style=&quot;color: rgb(255, 0, 0);&quot; face=&quot;Fira Code&quot;&gt;Postgres&lt;/font&gt;&lt;/div&gt;" style="shape=datastore;whiteSpace=wrap;html=1;" parent="_BnmR6yMb-w9I0ZpGsDe-52" vertex="1">
          <mxGeometry x="584.5" y="356" width="71" height="60" as="geometry" />
        </mxCell>
        <mxCell id="_BnmR6yMb-w9I0ZpGsDe-26" value="&lt;font face=&quot;Fira Code&quot;&gt;Prescriptions&lt;/font&gt;" style="text;html=1;align=center;verticalAlign=middle;whiteSpace=wrap;rounded=0;" parent="_BnmR6yMb-w9I0ZpGsDe-52" vertex="1">
          <mxGeometry x="560" y="250" width="120" height="30" as="geometry" />
        </mxCell>
        <mxCell id="_BnmR6yMb-w9I0ZpGsDe-27" value="" style="rounded=1;whiteSpace=wrap;html=1;" parent="_BnmR6yMb-w9I0ZpGsDe-52" vertex="1">
          <mxGeometry x="400" y="480" width="120" height="90" as="geometry" />
        </mxCell>
        <mxCell id="_BnmR6yMb-w9I0ZpGsDe-28" value="&lt;font style=&quot;color: rgb(0, 0, 0);&quot; face=&quot;Fira Code&quot;&gt;Code&lt;/font&gt;&lt;div&gt;&lt;font style=&quot;color: rgb(255, 0, 0);&quot; face=&quot;Fira Code&quot;&gt;Nest.JS app&lt;/font&gt;&lt;/div&gt;" style="rounded=1;whiteSpace=wrap;html=1;" parent="_BnmR6yMb-w9I0ZpGsDe-52" vertex="1">
          <mxGeometry x="410" y="520" width="100" height="40" as="geometry" />
        </mxCell>
        <mxCell id="_BnmR6yMb-w9I0ZpGsDe-30" value="&lt;font face=&quot;Fira Code&quot;&gt;Notifications&lt;/font&gt;" style="text;html=1;align=center;verticalAlign=middle;whiteSpace=wrap;rounded=0;" parent="_BnmR6yMb-w9I0ZpGsDe-52" vertex="1">
          <mxGeometry x="400" y="480" width="120" height="30" as="geometry" />
        </mxCell>
        <mxCell id="_BnmR6yMb-w9I0ZpGsDe-31" value="" style="rounded=1;whiteSpace=wrap;html=1;" parent="_BnmR6yMb-w9I0ZpGsDe-52" vertex="1">
          <mxGeometry x="80" y="250" width="120" height="90" as="geometry" />
        </mxCell>
        <mxCell id="_BnmR6yMb-w9I0ZpGsDe-32" value="&lt;font style=&quot;color: rgb(0, 0, 0);&quot; face=&quot;Fira Code&quot;&gt;Code&lt;/font&gt;&lt;div&gt;&lt;font style=&quot;color: rgb(255, 0, 0);&quot; face=&quot;Fira Code&quot;&gt;Nest.JS app&lt;/font&gt;&lt;/div&gt;" style="rounded=1;whiteSpace=wrap;html=1;" parent="_BnmR6yMb-w9I0ZpGsDe-52" vertex="1">
          <mxGeometry x="90" y="290" width="100" height="40" as="geometry" />
        </mxCell>
        <mxCell id="_BnmR6yMb-w9I0ZpGsDe-34" value="&lt;font face=&quot;Fira Code&quot;&gt;Auth&lt;/font&gt;" style="text;html=1;align=center;verticalAlign=middle;whiteSpace=wrap;rounded=0;" parent="_BnmR6yMb-w9I0ZpGsDe-52" vertex="1">
          <mxGeometry x="80" y="250" width="120" height="30" as="geometry" />
        </mxCell>
        <mxCell id="_BnmR6yMb-w9I0ZpGsDe-35" value="&lt;font style=&quot;color: rgb(255, 0, 0);&quot; face=&quot;Fira Code&quot;&gt;&lt;b&gt;Next.js App&lt;/b&gt;&lt;/font&gt;" style="text;html=1;align=center;verticalAlign=middle;whiteSpace=wrap;rounded=0;" parent="_BnmR6yMb-w9I0ZpGsDe-52" vertex="1">
          <mxGeometry x="330.5" width="100" height="30" as="geometry" />
        </mxCell>
        <mxCell id="_BnmR6yMb-w9I0ZpGsDe-36" style="edgeStyle=orthogonalEdgeStyle;rounded=0;orthogonalLoop=1;jettySize=auto;html=1;exitX=0.5;exitY=1;exitDx=0;exitDy=0;entryX=0.5;entryY=0;entryDx=0;entryDy=0;" parent="_BnmR6yMb-w9I0ZpGsDe-52" source="_BnmR6yMb-w9I0ZpGsDe-4" target="_BnmR6yMb-w9I0ZpGsDe-8" edge="1">
          <mxGeometry relative="1" as="geometry" />
        </mxCell>
        <mxCell id="_BnmR6yMb-w9I0ZpGsDe-45" value="" style="endArrow=classic;html=1;rounded=0;entryX=0.5;entryY=0;entryDx=0;entryDy=0;exitX=0.236;exitY=0.989;exitDx=0;exitDy=0;exitPerimeter=0;" parent="_BnmR6yMb-w9I0ZpGsDe-52" target="_BnmR6yMb-w9I0ZpGsDe-14" edge="1">
          <mxGeometry width="50" height="50" relative="1" as="geometry">
            <mxPoint x="301.0999999999999" y="179.55999999999995" as="sourcePoint" />
            <mxPoint x="479.5" y="370" as="targetPoint" />
          </mxGeometry>
        </mxCell>
        <mxCell id="_BnmR6yMb-w9I0ZpGsDe-48" value="" style="endArrow=classic;html=1;rounded=0;entryX=0.5;entryY=0;entryDx=0;entryDy=0;exitX=0.766;exitY=0.998;exitDx=0;exitDy=0;exitPerimeter=0;" parent="_BnmR6yMb-w9I0ZpGsDe-52" target="_BnmR6yMb-w9I0ZpGsDe-26" edge="1">
          <mxGeometry width="50" height="50" relative="1" as="geometry">
            <mxPoint x="619.0999999999999" y="179.92000000000007" as="sourcePoint" />
            <mxPoint x="489.5" y="130" as="targetPoint" />
          </mxGeometry>
        </mxCell>
        <mxCell id="_BnmR6yMb-w9I0ZpGsDe-49" value="" style="endArrow=classic;html=1;rounded=0;entryX=0;entryY=0.5;entryDx=0;entryDy=0;exitX=0.5;exitY=1;exitDx=0;exitDy=0;" parent="_BnmR6yMb-w9I0ZpGsDe-52" source="_BnmR6yMb-w9I0ZpGsDe-13" target="_BnmR6yMb-w9I0ZpGsDe-27" edge="1">
          <mxGeometry width="50" height="50" relative="1" as="geometry">
            <mxPoint x="289.5" y="460" as="sourcePoint" />
            <mxPoint x="339.5" y="410" as="targetPoint" />
            <Array as="points">
              <mxPoint x="299.5" y="525" />
            </Array>
          </mxGeometry>
        </mxCell>
        <mxCell id="_BnmR6yMb-w9I0ZpGsDe-50" value="" style="endArrow=classic;html=1;rounded=0;entryX=1;entryY=0.5;entryDx=0;entryDy=0;exitX=0.5;exitY=1;exitDx=0;exitDy=0;" parent="_BnmR6yMb-w9I0ZpGsDe-52" source="_BnmR6yMb-w9I0ZpGsDe-23" target="_BnmR6yMb-w9I0ZpGsDe-27" edge="1">
          <mxGeometry width="50" height="50" relative="1" as="geometry">
            <mxPoint x="289.5" y="460" as="sourcePoint" />
            <mxPoint x="339.5" y="410" as="targetPoint" />
            <Array as="points">
              <mxPoint x="619.5" y="525" />
            </Array>
          </mxGeometry>
        </mxCell>
        <mxCell id="_BnmR6yMb-w9I0ZpGsDe-51" value="" style="endArrow=classic;html=1;rounded=0;entryX=0.5;entryY=0;entryDx=0;entryDy=0;exitX=0.5;exitY=1;exitDx=0;exitDy=0;" parent="_BnmR6yMb-w9I0ZpGsDe-52" source="_BnmR6yMb-w9I0ZpGsDe-19" target="_BnmR6yMb-w9I0ZpGsDe-30" edge="1">
          <mxGeometry width="50" height="50" relative="1" as="geometry">
            <mxPoint x="429.5" y="560" as="sourcePoint" />
            <mxPoint x="479.5" y="510" as="targetPoint" />
          </mxGeometry>
        </mxCell>
        <mxCell id="TVC5iP5IBNVMzCIGc_Wy-2" value="" style="endArrow=classic;html=1;rounded=0;entryX=0.5;entryY=0;entryDx=0;entryDy=0;exitX=0.236;exitY=0.989;exitDx=0;exitDy=0;exitPerimeter=0;" edge="1" parent="_BnmR6yMb-w9I0ZpGsDe-52">
          <mxGeometry width="50" height="50" relative="1" as="geometry">
            <mxPoint x="139.9399999999999" y="180" as="sourcePoint" />
            <mxPoint x="139.84" y="250.44000000000005" as="targetPoint" />
          </mxGeometry>
        </mxCell>
      </root>
    </mxGraphModel>
  </diagram>
</mxfile>
